<svg height="512" viewBox="0 0 512 512" width="512" xmlns="http://www.w3.org/2000/svg"><path d="m256 49.5c67.3 0 75.2.3 101.8 1.5 24.6 1.1 37.9 5.2 46.8 8.7a78.1 78.1 0 0 1 29 18.8 78.1 78.1 0 0 1 18.8 29c3.4 8.9 7.6 22.2 8.7 46.8 1.2 26.6 1.5 34.5 1.5 101.8s-.3 75.2-1.5 101.8c-1.1 24.6-5.2 37.9-8.7 46.8a83.4 83.4 0 0 1 -47.8 47.8c-8.9 3.4-22.2 7.6-46.8 8.7-26.6 1.2-34.5 1.5-101.8 1.5s-75.2-.3-101.8-1.5c-24.6-1.1-37.9-5.2-46.8-8.7a78.1 78.1 0 0 1 -29-18.8 78.1 78.1 0 0 1 -18.8-29c-3.4-8.9-7.6-22.2-8.7-46.8-1.2-26.6-1.5-34.5-1.5-101.8s.3-75.2 1.5-101.8c1.1-24.6 5.2-37.9 8.7-46.8a78.1 78.1 0 0 1 18.8-29 78.1 78.1 0 0 1 29-18.8c8.9-3.4 22.2-7.6 46.8-8.7 26.6-1.2 34.5-1.5 101.8-1.5m0-45.4c-68.4 0-77 .3-103.9 1.5s-45.1 5.5-61.1 11.7a123.5 123.5 0 0 0 -44.6 29.1 123.5 123.5 0 0 0 -29.1 44.6c-6.2 16-10.5 34.3-11.7 61.2s-1.5 35.4-1.5 103.8.3 77 1.5 103.9 5.5 45.1 11.7 61.1a123.5 123.5 0 0 0 29.1 44.6 123.5 123.5 0 0 0 44.6 29.1c16 6.2 34.3 10.5 61.2 11.7s35.4 1.5 103.9 1.5 77-.3 103.9-1.5 45.1-5.5 61.2-11.7a128.8 128.8 0 0 0 73.5-73.7c6.2-16 10.5-34.3 11.7-61.2s1.5-35.4 1.5-103.9-.3-77-1.5-103.9-5.5-45-11.7-61a123.5 123.5 0 0 0 -29.1-44.6 123.5 123.5 0 0 0 -44.6-29.1c-16-6.2-34.3-10.5-61.2-11.7s-35.4-1.5-103.8-1.5z"/><path d="m256 126.6a129.4 129.4 0 1 0 129.4 129.4 129.4 129.4 0 0 0 -129.4-129.4zm0 213.4a84 84 0 1 1 84-84 84 84 0 0 1 -84 84z"/><circle cx="390.5" cy="121.5" r="30.2"/></svg>