<svg xmlns="http://www.w3.org/2000/svg" width="245.8" height="125.4" viewBox="0 0 245.8 125.4"><title>logo</title><g id="E-2" data-name="E"><circle cx="208.7" cy="103.7" r="21.8" fill="#3a497c"/><circle cx="146.4" cy="103.7" r="21.8" fill="#559c7a"/><circle cx="84.1" cy="103.7" r="21.8" fill="#f5af0e"/><circle cx="21.8" cy="103.7" r="21.8" fill="#f94139"/><path d="M225.8,23.1,223,34.9a45.4,45.4,0,0,1,9-9.8q4.5-3.5,8.3-3.5a5.6,5.6,0,0,1,4,1.4,4.7,4.7,0,0,1,1.5,3.6,6.1,6.1,0,0,1-1.8,4.6h0a4.1,4.1,0,0,1-6.3-.8h-.1a3.5,3.5,0,0,0-4.5-1.3,20.3,20.3,0,0,0-6.7,5.2q-3.2,3.9-4.5,11.4l-4,22.8h-8.2L218,27.3h-7.4l.9-4.2"/><line x1="212.3" y1="24.9" x2="227.4" y2="24.9"/><path d="M176,46.9a17.3,17.3,0,0,0-.3,2.1q-.1,1.1-.1,2.4,0,5.9,2.7,9.3a8.9,8.9,0,0,0,7.4,3.4,16.4,16.4,0,0,0,7.4-2,36.8,36.8,0,0,0,8.2-5.9v4.6a34.6,34.6,0,0,1-9.3,6.5,22.7,22.7,0,0,1-9.6,2.2q-6.9,0-10.8-4.7t-3.9-13a32.8,32.8,0,0,1,2.3-12,30.6,30.6,0,0,1,6.4-10.1,29.1,29.1,0,0,1,7.9-5.8,18.4,18.4,0,0,1,8.1-2.2,10.1,10.1,0,0,1,7.3,2.6,9.3,9.3,0,0,1,2.7,7q0,6.5-7,10.6T176,46.9Zm.4-3.3q8.5-.5,13.8-4.1t5.3-8.6a5.1,5.1,0,0,0-1.5-3.7,4.9,4.9,0,0,0-3.6-1.5q-4.5,0-8.2,4.8T176.5,43.6Z"/><path d="M163.9,66.5a59.7,59.7,0,0,1-6.4,2.2,20,20,0,0,1-5,.8q-3.7,0-5.4-1.4a5.6,5.6,0,0,1-1.7-4.5,19,19,0,0,1,.2-2.4q.2-1.3.5-2.8l4.2-18.2q.5-2,.7-3.6a17.6,17.6,0,0,0,.3-2.7,7.3,7.3,0,0,0-1.3-4.8,4.9,4.9,0,0,0-4-1.5,13.8,13.8,0,0,0-6.4,2.1,44.5,44.5,0,0,0-8,5.9l-6,32.9h-8.3L130.6,4.3h-7.4L124,0H139c-.6,2.2-.4,1.6-1,4.4s-1.3,6-2.1,9.8l-3.2,16.6a58.9,58.9,0,0,1,10.4-7,18.8,18.8,0,0,1,8.3-2.3,8.3,8.3,0,0,1,6,2.1,7.5,7.5,0,0,1,2.2,5.7,21.8,21.8,0,0,1-.3,3.2q-.3,1.9-1.1,5.5l-3.4,15.2q-.6,2.5-.8,3.9a17.3,17.3,0,0,0-.2,2.5,4.9,4.9,0,0,0,1.3,3.6,5,5,0,0,0,3.7,1.3l2.4-.2,2.7-.5"/><path d="M111.6,27.5h-9.9L96.6,53.7v.9a23.7,23.7,0,0,0-.4,3.4,6.2,6.2,0,0,0,1.5,4.5A5.9,5.9,0,0,0,102,64a18.5,18.5,0,0,0,3.9-.5l5.3-1.5v3.1a73.7,73.7,0,0,1-8.7,3.2,23.8,23.8,0,0,1-6.3,1.1q-4.1,0-6.1-2.2c-1.3-1.5-2-3.7-2-6.7a29.3,29.3,0,0,1,.2-3.1c.1-1.1.3-2.3.6-3.5l5.3-26.6H87.7l.8-4.1H95l2.2-11.1h7.3l-2,11.1h9.9Z"/><path d="M73.2,30.5l-2-2.7a4.2,4.2,0,0,0-2-1.6h0L67.6,26a6.7,6.7,0,0,0-4.9,1.9,6.2,6.2,0,0,0-1.9,4.7q0,3.5,7.1,8.9h.2l1.3,1q8.4,6.5,8.4,11.8a13.5,13.5,0,0,1-5,10.8q-5,4.2-12.8,4.2-6,0-9.5-2.3a7.1,7.1,0,0,1-3.5-6.2,4.8,4.8,0,0,1,1.4-3.6A5.1,5.1,0,0,1,52.3,56a5.2,5.2,0,0,1,1.9.4h0a2.6,2.6,0,0,1,1.5,3.3L55.2,61a2.7,2.7,0,0,0,.7,3,7.5,7.5,0,0,0,1.7,1.1,9.1,9.1,0,0,0,4,.9,9.1,9.1,0,0,0,6.5-2.2,7.9,7.9,0,0,0,2.4-6.1,7,7,0,0,0-1.3-4,27,27,0,0,0-5.5-5l-.4-.3q-8.8-6.6-8.8-11.9A13.4,13.4,0,0,1,59.5,26a17.2,17.2,0,0,1,11.8-4.3,11.6,11.6,0,0,1,6.6,1.7,5.1,5.1,0,0,1,2.5,4.3,4.4,4.4,0,0,1-1.5,3.5h0A3.8,3.8,0,0,1,73.2,30.5Z"/><path d="M16.9,46.9a17.3,17.3,0,0,0-.3,2.1q-.1,1.1-.1,2.4,0,5.9,2.7,9.3a8.9,8.9,0,0,0,7.4,3.4,16.4,16.4,0,0,0,7.4-2,36.8,36.8,0,0,0,8.2-5.9v4.6A34.6,34.6,0,0,1,33,67.2a22.7,22.7,0,0,1-9.6,2.2q-6.9,0-10.8-4.7t-3.9-13a32.7,32.7,0,0,1,2.3-12,30.5,30.5,0,0,1,6.4-10.1,29,29,0,0,1,7.9-5.8,18.4,18.4,0,0,1,8.1-2.2,10.1,10.1,0,0,1,7.3,2.6,9.3,9.3,0,0,1,2.7,7q0,6.5-7,10.6T16.9,46.9Zm.4-3.3q8.5-.5,13.8-4.1T36.4,31a5.1,5.1,0,0,0-1.5-3.7,4.9,4.9,0,0,0-3.6-1.5q-4.5,0-8.2,4.8T17.3,43.6Z"/></g></svg>