<svg id="Layer_1" data-name="Layer 1" xmlns="http://www.w3.org/2000/svg" width="239.1" height="125.8" viewBox="0 0 239.1 125.8"><title>logo</title><circle cx="21" cy="105.4" r="20.4" fill="#f94139"/><circle cx="79.4" cy="105.4" r="20.4" fill="#f5af0e"/><circle cx="137.8" cy="105.4" r="20.4" fill="#559c7a"/><circle cx="196.1" cy="105.4" r="20.4" fill="#3a497c"/><path d="M8.2,49.9a17.3,17.3,0,0,0-.3,2.1q-.1,1.1-.1,2.4,0,5.9,2.7,9.3A8.9,8.9,0,0,0,18,67.2a16.4,16.4,0,0,0,7.4-2,36.8,36.8,0,0,0,8.2-5.9v4.6a34.6,34.6,0,0,1-9.3,6.5,22.7,22.7,0,0,1-9.6,2.2q-6.9,0-10.8-4.7T0,54.8a32.7,32.7,0,0,1,2.3-12A30.5,30.5,0,0,1,8.6,32.7a29,29,0,0,1,7.9-5.8,18.4,18.4,0,0,1,8.1-2.2A10.1,10.1,0,0,1,32,27.3a9.3,9.3,0,0,1,2.7,7q0,6.5-7,10.6T8.2,49.9Zm.4-3.3q8.5-.5,13.8-4.1T27.7,34a5.1,5.1,0,0,0-1.5-3.7,4.9,4.9,0,0,0-3.6-1.5q-4.5,0-8.2,4.8T8.6,46.7Z"/><path d="M65,35.6,60.9,30l-1.4-.8L57.9,29A6.7,6.7,0,0,0,53,30.9a6.2,6.2,0,0,0-1.9,4.7q0,3.5,7.1,8.9h.2l1.3,1q8.4,6.5,8.4,11.8a13.5,13.5,0,0,1-5,10.8q-5,4.2-12.8,4.2-6,0-9.5-2.3a7.1,7.1,0,0,1-3.5-6.2,4.8,4.8,0,0,1,1.4-3.6A5.1,5.1,0,0,1,42.6,59a5.2,5.2,0,0,1,1.9.4,9.8,9.8,0,0,1,2.2,1.4L45,65.6a7.5,7.5,0,0,0,2.9,2.5,9.1,9.1,0,0,0,4,.9,9.1,9.1,0,0,0,6.5-2.2,7.9,7.9,0,0,0,2.4-6.1,7,7,0,0,0-1.3-4,27,27,0,0,0-5.5-5l-.4-.3q-8.8-6.6-8.8-11.9A13.4,13.4,0,0,1,49.8,29a17.2,17.2,0,0,1,11.8-4.3,11.6,11.6,0,0,1,6.6,1.7,5.1,5.1,0,0,1,2.5,4.3,4.4,4.4,0,0,1-1.5,3.5A6.6,6.6,0,0,1,65,35.6Z"/><path d="M91.4,15.2h4.5l-2,11.1h14v4.2H93L88,56.7v.9a24.4,24.4,0,0,0-.4,3.4,6.2,6.2,0,0,0,1.5,4.5,5.9,5.9,0,0,0,4.4,1.6,18.9,18.9,0,0,0,3.9-.5l5.3-1.5v3.1a72.4,72.4,0,0,1-8.7,3.2,23.9,23.9,0,0,1-6.3,1.1q-4.1,0-6.1-2.2t-2-6.7a27.8,27.8,0,0,1,.2-3.1,34.5,34.5,0,0,1,.6-3.5l5.3-26.5-6,.5V28.1L86.5,25Z"/><path d="M129.2,0h3q-.9,3.2-1.8,7.4t-2.1,9.8l-3.2,16.6a58.9,58.9,0,0,1,10.4-7,18.8,18.8,0,0,1,8.3-2.3,8.3,8.3,0,0,1,6,2.1,7.5,7.5,0,0,1,2.2,5.7,21.8,21.8,0,0,1-.3,3.2q-.3,1.9-1.1,5.5l-3.4,15.2q-.6,2.5-.8,3.9a17.3,17.3,0,0,0-.2,2.5,4.9,4.9,0,0,0,1.3,3.6,5,5,0,0,0,3.7,1.3l2.4-.2,3-.6v2.5a53.1,53.1,0,0,1-6.7,2.4,20,20,0,0,1-5,.8q-3.7,0-5.4-1.4a5.6,5.6,0,0,1-1.7-4.5,19,19,0,0,1,.2-2.4q.2-1.3.5-2.8l4.2-18.2q.5-2,.7-3.6a17.6,17.6,0,0,0,.3-2.7,7.3,7.3,0,0,0-1.3-4.8,4.9,4.9,0,0,0-4-1.5,13.8,13.8,0,0,0-6.4,2.1,44.5,44.5,0,0,0-8,5.9l-6,32.9h-8.3L123.1,6.4l-9.2-.8V3.2Z"/><path d="M169.4,49.9a17.3,17.3,0,0,0-.3,2.1q-.1,1.1-.1,2.4,0,5.9,2.7,9.3a8.9,8.9,0,0,0,7.4,3.4,16.4,16.4,0,0,0,7.4-2,36.8,36.8,0,0,0,8.2-5.9v4.6a34.6,34.6,0,0,1-9.3,6.5,22.7,22.7,0,0,1-9.6,2.2q-6.9,0-10.8-4.7t-3.9-13a32.8,32.8,0,0,1,2.3-12,30.6,30.6,0,0,1,6.4-10.1,29.1,29.1,0,0,1,7.9-5.8,18.4,18.4,0,0,1,8.1-2.2,10.1,10.1,0,0,1,7.3,2.6,9.3,9.3,0,0,1,2.7,7q0,6.5-7,10.6T169.4,49.9Zm.4-3.3q8.5-.5,13.8-4.1t5.3-8.6a5.1,5.1,0,0,0-1.5-3.7,4.9,4.9,0,0,0-3.6-1.5q-4.5,0-8.2,4.8T169.8,46.7Z"/><path d="M217.5,24.7h1.9L216.3,38a45.4,45.4,0,0,1,9-9.8q4.5-3.5,8.3-3.5a5.6,5.6,0,0,1,4,1.4,4.7,4.7,0,0,1,1.5,3.6,6.1,6.1,0,0,1-1.8,4.6,6.5,6.5,0,0,1-4.7,1.7h-.7l-2.6-5.2q-6.5,2.5-9.7,6.5t-4.5,11.4l-4,22.8H203l8.1-39.8-8-1.4V27.9Z"/></svg>