<svg height="95.7" viewBox="0 0 239.1 95.7" width="239.1" xmlns="http://www.w3.org/2000/svg" xmlns:xlink="http://www.w3.org/1999/xlink"><clipPath id="a"><path d="m0 0h239.1v95.71h-239.1z"/></clipPath><g clip-path="url(#a)"><path d="m43.4 95.7a43.8 43.8 0 1 0 -43.4-43.8 43.6 43.6 0 0 0 43.4 43.8" fill="#f94139"/><path d="m96.3 91.4a39.5 39.5 0 1 0 -39.1-39.5 39.3 39.3 0 0 0 39.1 39.5" fill="#f5af0e"/><path d="m151 91.4a45.7 45.7 0 1 0 -45.2-45.7 45.5 45.5 0 0 0 45.2 45.7" fill="#559c7a"/><path d="m205.3 85.9a33.3 33.3 0 1 0 -33.8-33.3 33.5 33.5 0 0 0 33.8 33.3" fill="#462e44"/><g fill="#fff"><path d="m26 69.8c12 .3 22.9-4.6 29.8-13.1.8-1 .1-2.3-.9-3-7.2-4.5-17 3.8-17.8 10.3-1.1 9.6 16.5 8.4 22.8 7 3.1-.7 1.8-4.9-1.3-4.2s-11.1 2.1-14.4-.1c-5.1-3.4 3.6-12.1 8.2-9.2l-.9-3c-5.9 7.3-15.4 11.2-25.5 11-3.2-.1-3.2 4.3 0 4.3"/><path d="m85.7 45c-5.7-3.2-13.2.3-14.3 6a10.8 10.8 0 0 0 2.8 8.8c1.4 1.6 5.6 3.7 3.2 6.1s-8.2 1.6-10.9 1.2-4.4 3.7-1.3 4.2c5.4.8 17.6.6 18.7-5.9.5-2.8-1.8-4.6-3.8-6.4s-4-3.9-3.8-6.5a4.7 4.7 0 0 1 7-3.7c2.7 1.5 5.1-2.2 2.5-3.8"/><path d="m95.9 33.8a136.2 136.2 0 0 0 1.6 29.9c.4 2.8 5.2 1.6 4.8-1.2a131.2 131.2 0 0 1 -1.4-28.8c.2-2.8-4.8-2.8-4.9 0"/><path d="m92.5 54.4a43.7 43.7 0 0 0 30.6-11.3c2.2-2-1.3-5.1-3.5-3.1a38.4 38.4 0 0 1 -27.1 10 2.2 2.2 0 1 0 0 4.3"/><path d="m132.7 18.1.3-3.6c.2-2.4-4.5-3-4.8-.6l-6.6 41.9c-.4 2.4 2.8 3.7 4.5 1.7a120.4 120.4 0 0 1 15.6-15.5h-3.5c3.5 3.3 2.2 8.6 5.4 12.2s5.7 4.1 9.2 2.8 1.6-5.3-1.3-4.2c-5 1.9-5.7-5.3-6.4-7.9a12.4 12.4 0 0 0 -3.4-5.9 2.8 2.8 0 0 0 -3.5 0 126.4 126.4 0 0 0 -16.4 16.5l4.5 1.7 6.6-41.9-4.8-.6-.3 3.6c-.2 2.8 4.7 2.8 4.9 0"/><path d="m156.3 47.4c6.5 1.2 12.7-.5 17.1-5 1.8-1.8-.5-4.8-3-3.4-4.7 2.5-10 5.9-9.8 11.3s4.1 7.3 9.1 7.2 10.6-3.2 14.9-6.2 5.4-4.4 8.5-6 3.2-2 4 .6a18.6 18.6 0 0 1 .6 7.2c-.2 2.3 3.3 2.8 4.6 1.1 6.1-8 15.9-12.9 26.7-13.5 3.2-.2 3.2-4.5 0-4.3-12.7.7-23.9 6.3-31 15.6l4.6 1.1c.3-3.7.3-9.5-3-12.4s-8 .1-10.8 1.9-7.8 6.2-12.3 8.5c-2.7 1.4-10.2 4.2-10.9-.9-.5-3.6 4.5-6.1 7.4-7.6l-3-3.4a13.4 13.4 0 0 1 -12.3 3.9c-3.1-.6-4.4 3.6-1.3 4.2"/></g></g></svg>